<svg xmlns="http://www.w3.org/2000/svg" width="256" height="256" viewBox="0 0 100 100"><rect width="100" height="100" rx="20" fill="#341a1a"></rect><path fill="#fff" d="M50.80 87.40Q38.80 87.40 33.50 81.30Q28.20 75.20 28.20 62.60L28.20 62.60L28.20 40.00Q28.20 30.50 30.25 24.55Q32.30 18.60 37.15 15.60Q42 12.60 50.60 12.60L50.60 12.60Q60 12.60 65.90 17.50Q71.80 22.40 71.80 31.20L71.80 31.20L71.80 42.40L54 42.40L54 32.10Q54 29.20 53.20 27.65Q52.40 26.10 50.10 26.10L50.10 26.10Q45.80 26.10 45.80 32.20L45.80 32.20L45.80 67.70Q45.80 70.20 46.85 71.95Q47.90 73.70 50 73.70L50 73.70Q52.10 73.70 53.15 72Q54.20 70.30 54.10 67.60L54.10 67.60L54 55.30L71.80 55.30L71.80 68.10Q71.80 77.10 65.95 82.25Q60.10 87.40 50.80 87.40L50.80 87.40Z"></path></svg>